<svg width="438.66750488281247px" height="121.40498046875px" xmlns="http://www.w3.org/2000/svg" viewBox="30.666247558593767 14.297509765625001 438.66750488281247 121.40498046875" style="background: rgba(0, 0, 0, 0);" preserveAspectRatio="xMidYMid"><defs><linearGradient id="editing-gradient-gradient" x1="0" x2="1" y1="0.5" y2="0.5" gradientUnits="objectBoundingBox"><stop offset="0" stop-color="#f0f"></stop><stop offset="1" stop-color="#0ff"></stop></linearGradient></defs><g><g transform="translate(96.17125427722931, 99)"><path d="M26.05-29.57L26.05-29.57L26.05-29.57Q27.01-31.49 27.01-33.28L27.01-33.28L27.01-33.28Q27.01-35.07 26.82-36.06L26.82-36.06L26.82-36.06Q26.62-37.06 26.18-37.82L26.18-37.82L26.18-37.82Q25.22-39.49 23.30-39.49L23.30-39.49L23.30-39.49Q20.93-39.49 19.01-37.76L19.01-37.76L19.01-37.76Q16.96-35.97 16.96-33.15L16.96-33.15L16.96-33.15Q16.96-31.36 18.21-29.98L18.21-29.98L18.21-29.98Q19.46-28.61 21.38-27.33L21.38-27.33L21.38-27.33Q23.30-26.05 25.47-24.77L25.47-24.77L25.47-24.77Q27.65-23.49 29.57-21.95L29.57-21.95L29.57-21.95Q33.98-18.43 33.98-13.70L33.98-13.70L33.98-13.70Q33.98-10.50 32.29-7.78L32.29-7.78L32.29-7.78Q30.59-5.06 27.78-3.07L27.78-3.07L27.78-3.07Q21.63 1.28 13.50 1.28L13.50 1.28L13.50 1.28Q6.91 1.28 3.52-0.86L3.52-0.86L3.52-0.86Q0.13-3.01 0.13-6.27L0.13-6.27L0.13-6.27Q0.13-12.10 4.67-13.57L4.67-13.57L4.67-13.57Q5.95-14.02 7.90-14.02L7.90-14.02L7.90-14.02Q9.86-14.02 12.10-13.18L12.10-13.18L12.10-13.18Q11.07-10.56 11.07-8.19L11.07-8.19L11.07-8.19Q11.07-3.07 14.72-3.07L14.72-3.07L14.72-3.07Q17.09-3.07 19.04-4.80L19.04-4.80L19.04-4.80Q20.99-6.53 20.99-8.48L20.99-8.48L20.99-8.48Q20.99-10.43 19.74-11.84L19.74-11.84L19.74-11.84Q18.50-13.25 16.64-14.37L16.64-14.37L16.64-14.37Q14.78-15.49 12.64-16.58L12.64-16.58L12.64-16.58Q10.50-17.66 8.64-19.20L8.64-19.20L8.64-19.20Q4.29-22.72 4.29-28.35L4.29-28.35L4.29-28.35Q4.29-32 6.08-34.85L6.08-34.85L6.08-34.85Q7.87-37.70 10.75-39.62L10.75-39.62L10.75-39.62Q16.51-43.52 23.58-43.52L23.58-43.52L23.58-43.52Q30.66-43.52 34.08-41.41L34.08-41.41L34.08-41.41Q37.50-39.30 37.50-35.71L37.50-35.71L37.50-35.71Q37.50-32.58 35.07-30.59L35.07-30.59L35.07-30.59Q32.96-28.93 30.40-28.93L30.40-28.93L30.40-28.93Q27.84-28.93 26.05-29.57ZM52.80 1.28L52.80 1.28L52.80 1.28Q38.72 1.28 38.72-11.97L38.72-11.97L38.72-11.97Q38.72-21.38 43.90-27.46L43.90-27.46L43.90-27.46Q49.41-33.92 58.94-33.92L58.94-33.92L58.94-33.92Q65.86-33.92 69.38-30.72L69.38-30.72L69.38-30.72Q72.90-27.52 72.90-20.80L72.90-20.80L72.90-20.80Q72.90-10.56 67.39-4.61L67.39-4.61L67.39-4.61Q62.02 1.28 52.80 1.28ZM54.46-26.56L54.46-26.56L54.46-26.56Q53.70-24.83 53.09-22.24L53.09-22.24L53.09-22.24Q52.48-19.65 51.71-15.55L51.71-15.55L51.71-15.55Q50.94-11.46 50.94-6.40L50.94-6.40L50.94-6.40Q50.94-4.74 51.49-3.65L51.49-3.65L51.49-3.65Q52.03-2.56 53.50-2.56L53.50-2.56L53.50-2.56Q54.98-2.56 55.90-3.26L55.90-3.26L55.90-3.26Q56.83-3.97 57.54-5.63L57.54-5.63L57.54-5.63Q58.82-8.58 59.84-14.05L59.84-14.05L59.84-14.05Q60.86-19.52 60.96-21.89L60.96-21.89L60.96-21.89Q61.06-24.26 61.06-26.02L61.06-26.02L61.06-26.02Q61.06-27.78 60.54-28.93L60.54-28.93L60.54-28.93Q60.03-30.08 58.59-30.08L58.59-30.08L58.59-30.08Q57.15-30.08 56.19-29.18L56.19-29.18L56.19-29.18Q55.23-28.29 54.46-26.56ZM96.83-33.92L96.83-33.92L96.83-33.92Q99.14-33.92 100.93-33.41L100.93-33.41L100.93-33.41Q100.99-33.66 101.12-34.37L101.12-34.37L101.44-36.35L101.44-36.35Q101.70-37.63 102.08-39.74L102.08-39.74L103.10-44.80L115.84-46.08L108.74-8.96L108.74-8.96Q108.67-8.58 108.67-7.94L108.67-7.94L108.67-6.91L108.67-6.91Q108.67-5.50 109.38-4.45L109.38-4.45L109.38-4.45Q110.08-3.39 111.23-3.39L111.23-3.39L111.23-3.39Q109.95-0.38 106.05 0.90L106.05 0.90L106.05 0.90Q104.70 1.28 102.82 1.28L102.82 1.28L102.82 1.28Q100.93 1.28 99.20 0.29L99.20 0.29L99.20 0.29Q97.47-0.70 96.96-2.37L96.96-2.37L96.96-2.37Q95.94-0.70 93.89 0.29L93.89 0.29L93.89 0.29Q91.84 1.28 88.86 1.28L88.86 1.28L88.86 1.28Q85.89 1.28 83.42 0.51L83.42 0.51L83.42 0.51Q80.96-0.26 79.42-1.92L79.42-1.92L79.42-1.92Q76.61-5.18 76.61-12.61L76.61-12.61L76.61-12.61Q76.61-22.21 82.24-28.03L82.24-28.03L82.24-28.03Q87.87-33.92 96.83-33.92ZM96.38-30.08L96.38-30.08L96.38-30.08Q94.02-30.08 92.74-27.52L92.74-27.52L92.74-27.52Q91.46-24.96 90.14-18.62L90.14-18.62L90.14-18.62Q88.83-12.29 88.83-6.59L88.83-6.59L88.83-6.59Q88.83-2.69 91.14-2.69L91.14-2.69L91.14-2.69Q93.18-2.69 94.62-4.74L94.62-4.74L94.62-4.74Q96.06-6.78 96.64-10.18L96.64-10.18L100.10-28.93L100.10-28.93Q98.75-30.08 96.38-30.08ZM119.46-1.92L119.46-1.92L119.46-1.92Q117.95-3.58 117.28-6.21L117.28-6.21L117.28-6.21Q116.61-8.83 116.61-13.12L116.61-13.12L116.61-13.12Q116.61-17.41 118.08-21.31L118.08-21.31L118.08-21.31Q119.55-25.22 122.24-28.03L122.24-28.03L122.24-28.03Q127.74-33.92 136.83-33.92L136.83-33.92L136.83-33.92Q140.10-33.92 142.46-32.83L142.46-32.83L153.41-33.92L148.67-8.96L148.67-8.96Q148.48-8.19 148.48-6.78L148.48-6.78L148.48-6.78Q148.48-5.38 149.34-4.48L149.34-4.48L149.34-4.48Q150.21-3.58 151.49-3.46L151.49-3.46L151.49-3.46Q150.85-1.28 148.51 0L148.51 0L148.51 0Q146.18 1.28 143.55 1.28L143.55 1.28L143.55 1.28Q140.93 1.28 139.17 0.29L139.17 0.29L139.17 0.29Q137.41-0.70 136.90-2.37L136.90-2.37L136.90-2.37Q135.87-0.77 133.70 0.26L133.70 0.26L133.70 0.26Q131.52 1.28 128.61 1.28L128.61 1.28L128.61 1.28Q125.70 1.28 123.33 0.51L123.33 0.51L123.33 0.51Q120.96-0.26 119.46-1.92ZM132.96-27.90L132.96-27.90L132.96-27.90Q132.22-26.75 131.58-24.80L131.58-24.80L131.58-24.80Q130.94-22.85 129.89-17.63L129.89-17.63L129.89-17.63Q128.83-12.42 128.83-8.70L128.83-8.70L128.83-8.70Q128.83-4.99 129.41-3.90L129.41-3.90L129.41-3.90Q129.98-2.82 131.01-2.82L131.01-2.82L131.01-2.82Q133.06-2.82 134.56-4.77L134.56-4.77L134.56-4.77Q136.06-6.72 136.64-10.18L136.64-10.18L140.03-28.93L140.03-28.93Q138.69-30.08 137.12-30.08L137.12-30.08L137.12-30.08Q135.55-30.08 134.62-29.57L134.62-29.57L134.62-29.57Q133.70-29.06 132.96-27.90ZM181.89-42.69L181.89-42.69L181.89-42.69Q197.57-42.69 197.57-31.62L197.57-31.62L197.57-31.62Q197.57-25.54 193.66-21.89L193.66-21.89L193.66-21.89Q189.82-18.24 183.10-18.24L183.10-18.24L183.10-18.24Q179.97-18.24 177.54-20.03L177.54-20.03L177.54-20.03Q176.38-20.80 175.62-21.82L175.62-21.82L175.62-21.82Q180.29-21.82 182.75-24.67L182.75-24.67L182.75-24.67Q185.22-27.52 185.22-33.09L185.22-33.09L185.22-33.09Q185.22-38.66 179.71-38.66L179.71-38.66L178.18-38.66L178.18-38.66Q177.79-38.66 177.47-38.59L177.47-38.59L170.11 0L156.22 0L164.10-41.92L164.10-41.92Q170.94-42.56 174.91-42.62L174.91-42.62L174.91-42.62Q178.88-42.69 181.89-42.69ZM213.25-3.52L213.25-3.52L213.25-3.52Q211.26 1.28 204.93 1.28L204.93 1.28L204.93 1.28Q201.66 1.28 199.62-0.96L199.62-0.96L199.62-0.96Q197.89-2.94 197.89-4.93L197.89-4.93L197.89-4.93Q197.89-10.11 200.26-20.22L200.26-20.22L202.62-32.64L215.62-33.92L211.71-13.70L211.71-13.70Q210.62-8.96 210.62-7.30L210.62-7.30L210.62-7.30Q210.62-3.65 213.25-3.52ZM203.78-41.54L203.78-41.54L203.78-41.54Q203.78-44.03 205.86-45.38L205.86-45.38L205.86-45.38Q207.94-46.72 210.94-46.72L210.94-46.72L210.94-46.72Q213.95-46.72 215.78-45.38L215.78-45.38L215.78-45.38Q217.60-44.03 217.60-41.54L217.60-41.54L217.60-41.54Q217.60-39.04 215.58-37.76L215.58-37.76L215.58-37.76Q213.57-36.48 210.56-36.48L210.56-36.48L210.56-36.48Q207.55-36.48 205.66-37.76L205.66-37.76L205.66-37.76Q203.78-39.04 203.78-41.54ZM227.20 0.19L227.20 0.19L227.20 0.19Q225.15 1.28 222.34 1.28L222.34 1.28L222.34 1.28Q219.52 1.28 217.98-0.16L217.98-0.16L217.98-0.16Q216.45-1.60 216.45-4.38L216.45-4.38L216.45-4.38Q216.45-7.17 218.40-9.89L218.40-9.89L218.40-9.89Q220.35-12.61 223.26-14.14L223.26-14.14L223.26-14.14Q226.18-15.68 228.22-16.58L228.22-16.58L224.19-25.86L224.19-25.86Q223.10-28.22 221.06-28.22L221.06-28.22L220.54-28.16L220.35-28.16L220.35-28.16Q220.74-30.40 223.36-32.13L223.36-32.13L223.36-32.13Q225.98-33.92 228.99-33.92L228.99-33.92L228.99-33.92Q233.86-33.92 236.10-29.06L236.10-29.06L236.61-28.03L239.36-21.25L239.36-21.25Q241.09-22.02 241.82-23.46L241.82-23.46L241.82-23.46Q242.56-24.90 242.56-27.74L242.56-27.74L242.56-27.74Q242.56-30.59 241.02-32.38L241.02-32.38L241.02-32.38Q243.46-33.92 246.66-33.92L246.66-33.92L246.66-33.92Q252.42-33.92 252.42-28.35L252.42-28.35L252.42-28.35Q252.42-22.27 244.80-18.75L244.80-18.75L240.96-16.96L244.42-8.06L244.42-8.06Q245.44-5.38 247.30-4.22L247.30-4.22L247.30-4.22Q248.06-3.71 248.96-3.65L248.96-3.65L248.96-3.65Q247.04-0.51 242.88 0.90L242.88 0.90L242.88 0.90Q241.60 1.28 239.87 1.28L239.87 1.28L239.87 1.28Q238.14 1.28 236.16 0.10L236.16 0.10L236.16 0.10Q234.18-1.09 233.47-2.94L233.47-2.94L229.95-12.10L229.95-12.10Q226.37-10.50 226.37-4.67L226.37-4.67L226.37-4.67Q226.37-1.98 227.20 0.19ZM279.74-10.82L279.74-10.82L279.74-10.82Q281.34-9.73 281.34-7.33L281.34-7.33L281.34-7.33Q281.34-4.93 280.13-3.39L280.13-3.39L280.13-3.39Q278.91-1.86 276.93-0.83L276.93-0.83L276.93-0.83Q272.83 1.28 268.42 1.28L268.42 1.28L268.42 1.28Q264.00 1.28 261.41 0.32L261.41 0.32L261.41 0.32Q258.82-0.64 257.09-2.43L257.09-2.43L257.09-2.43Q253.70-5.82 253.70-12.03L253.70-12.03L253.70-12.03Q253.70-21.70 258.94-27.58L258.94-27.58L258.94-27.58Q264.58-33.92 274.37-33.92L274.37-33.92L274.37-33.92Q280.45-33.92 283.46-31.36L283.46-31.36L283.46-31.36Q285.70-29.44 285.70-26.30L285.70-26.30L285.70-26.30Q285.70-15.04 266.24-15.04L266.24-15.04L266.24-15.04Q265.98-13.38 265.98-11.97L265.98-11.97L265.98-11.97Q265.98-9.02 267.30-7.90L267.30-7.90L267.30-7.90Q268.61-6.78 271.04-6.78L271.04-6.78L271.04-6.78Q273.47-6.78 276.06-7.90L276.06-7.90L276.06-7.90Q278.66-9.02 279.74-10.82ZM266.69-17.79L266.69-17.79L266.69-17.79Q271.23-17.79 273.86-20.61L273.86-20.61L273.86-20.61Q276.48-23.30 276.48-27.58L276.48-27.58L276.48-27.58Q276.48-29.06 275.94-29.86L275.94-29.86L275.94-29.86Q275.39-30.66 274.30-30.66L274.30-30.66L274.30-30.66Q273.22-30.66 272.29-30.24L272.29-30.24L272.29-30.24Q271.36-29.82 270.40-28.42L270.40-28.42L270.40-28.42Q268.03-25.22 266.69-17.79ZM303.17-3.52L303.17-3.52L303.17-3.52Q301.18 1.28 294.85 1.28L294.85 1.28L294.85 1.28Q291.65 1.28 289.60-0.96L289.60-0.96L289.60-0.96Q287.94-2.82 287.94-4.93L287.94-4.93L287.94-4.93Q287.94-9.73 290.18-20.22L290.18-20.22L294.85-44.80L307.84-46.08L301.63-13.70L301.63-13.70Q300.54-8.96 300.54-7.30L300.54-7.30L300.54-7.30Q300.54-3.65 303.17-3.52Z" fill="url(#editing-gradient-gradient)"></path></g></g><style>text {
  font-size: 64px;
  font-family: Arial Black;
  dominant-baseline: central;
  text-anchor: middle;
}</style></svg>